<?xml version="1.0" encoding="UTF-8"?>

<svg width="32" height="32" viewBox="0 0 32 32" xmlns="http://www.w3.org/2000/svg">
  <rect width="32" height="32" rx="6" fill="#E8743C"></rect>
  <line x1="16" y1="2" x2="16" y2="6" stroke="#1E2A44" stroke-width="1.5" stroke-linecap="round"></line>
  <circle cx="16" cy="1.5" r="1.8" fill="#F5E8D0"></circle>
  <path d="M8,10C8,7 11,5.5 16,5.5C21,5.5 24,7 24,10L24,20C24,21.5 23,22.5 21.5,22.5L10.5,22.5C9,22.5 8,21.5 8,20Z" fill="#F5E8D0" stroke="#1E2A44" stroke-width="1.2" stroke-linejoin="round"></path>
  <circle cx="13" cy="14" r="2.5" fill="#1E2A44"></circle>
  <circle cx="19" cy="14" r="2.5" fill="#1E2A44"></circle>
  <circle cx="13.8" cy="13.2" r="0.8" fill="#F5E8D0"></circle>
  <circle cx="19.8" cy="13.2" r="0.8" fill="#F5E8D0"></circle>
  <path d="M13,19 Q16,21 19,19" fill="none" stroke="#1E2A44" stroke-width="1.2" stroke-linecap="round"></path>
  <rect x="6" y="12.5" width="2" height="4" rx="0.8" fill="#1E2A44"></rect>
  <rect x="24" y="12.5" width="2" height="4" rx="0.8" fill="#1E2A44"></rect>
</svg>