<?xml version="1.0" encoding="UTF-8" standalone="no"?>

<svg width="100%" height="100%" viewBox="0 0 600 600" version="1.1" xmlns="http://www.w3.org/2000/svg" xmlns:xlink="http://www.w3.org/1999/xlink" xml:space="preserve" xmlns:serif="http://www.serif.com/" style="fill-rule:evenodd;clip-rule:evenodd;stroke-linecap:round;">
    <rect x="0" y="0" width="600" height="600" style="fill:rgb(232,116,60);"></rect>
    <g transform="matrix(1,0,0,1,300,305)">
        <g transform="matrix(1,0,0,1,0,-8)">
            <path d="M0,-48L0,-32" style="fill:none;fill-rule:nonzero;stroke:rgb(30,42,68);stroke-width:6px;"></path>
            <circle cx="0" cy="-53" r="9" style="fill:rgb(245,232,208);stroke:rgb(30,42,68);stroke-width:4px;stroke-linecap:butt;"></circle>
            <path d="M-52,-2C-52,-22 -34.667,-32 0,-32C34.667,-32 52,-22 52,-2L52,42C52,48.667 48.667,52 42,52L-42,52C-48.667,52 -52,48.667 -52,42L-52,-2Z" style="fill:rgb(245,232,208);fill-rule:nonzero;stroke:rgb(30,42,68);stroke-width:7px;stroke-linecap:butt;stroke-linejoin:round;"></path>
            <circle cx="-19" cy="0" r="11" style="fill:rgb(30,42,68);"></circle>
            <circle cx="19" cy="0" r="11" style="fill:rgb(30,42,68);"></circle>
            <circle cx="-16" cy="-3" r="2.5" style="fill:rgb(245,232,208);"></circle>
            <circle cx="22" cy="-3" r="2.5" style="fill:rgb(245,232,208);"></circle>
            <path d="M-17,27C-5.667,33.667 5.667,33.667 17,27" style="fill:none;fill-rule:nonzero;stroke:rgb(30,42,68);stroke-width:4px;"></path>
            <path d="M-52,7L-52,16C-52,17.104 -52.896,18 -54,18L-60,18C-61.104,18 -62,17.104 -62,16L-62,7C-62,5.896 -61.104,5 -60,5L-54,5C-52.896,5 -52,5.896 -52,7Z" style="fill:rgb(30,42,68);"></path>
            <path d="M62,7L62,16C62,17.104 61.104,18 60,18L54,18C52.896,18 52,17.104 52,16L52,7C52,5.896 52.896,5 54,5L60,5C61.104,5 62,5.896 62,7Z" style="fill:rgb(30,42,68);"></path>
        </g>
        <g transform="matrix(1,0,0,1,0,96)">
            <g transform="matrix(0.012933,0,0,-0.012933,-115,0)">
                <path d="M1447,1174L874,1174L874,0L614,0L614,1174L40,1174L40,1434L1447,1434L1447,1174Z" style="fill:rgb(30,42,68);fill-rule:nonzero;"></path>
            </g>
            <g transform="matrix(0.012933,0,0,-0.012933,-95.77,0)">
                <path d="M1584,952C1584,892.667 1576.667,839.667 1562,793C1547.333,746.333 1527.5,705.167 1502.5,669.5C1477.5,633.833 1448.667,603.333 1416,578C1383.333,552.667 1349.167,531.833 1313.5,515.5C1277.833,499.167 1241.833,487.333 1205.5,480C1169.167,472.667 1135,469 1103,469L1646,0L1244,0L702,469L515,469L515,729L1103,729C1135.667,731.667 1165.5,738.5 1192.5,749.5C1219.5,760.5 1242.833,775.333 1262.5,794C1282.167,812.667 1297.333,835.167 1308,861.5C1318.667,887.833 1324,918 1324,952L1324,1116C1324,1130.667 1322.167,1141.833 1318.5,1149.5C1314.833,1157.167 1310.167,1162.833 1304.5,1166.5C1298.833,1170.167 1292.833,1172.333 1286.5,1173C1280.167,1173.667 1274.333,1174 1269,1174L411,1174L411,0L151,0L151,1303C151,1321 154.333,1338 161,1354C167.667,1370 176.833,1384 188.5,1396C200.167,1408 214,1417.333 230,1424C246,1430.667 263.333,1434 282,1434L1269,1434C1327,1434 1376,1423.5 1416,1402.5C1456,1381.5 1488.5,1355.167 1513.5,1323.5C1538.5,1291.833 1556.5,1257.667 1567.5,1221C1578.5,1184.333 1584,1150 1584,1118L1584,952Z" style="fill:rgb(30,42,68);fill-rule:nonzero;"></path>
            </g>
            <g transform="matrix(0.012933,0,0,-0.012933,-73.86,0)">
                <path d="M1558,0L1298,0L1298,352L384,352L384,0L124,0L124,717C124,821.667 142,918 178,1006C214,1094 264,1169.667 328,1233C392,1296.333 467.667,1345.667 555,1381C642.333,1416.333 737.667,1434 841,1434L1427,1434C1445,1434 1462,1430.667 1478,1424C1494,1417.333 1508,1408 1520,1396C1532,1384 1541.333,1370 1548,1354C1554.667,1338 1558,1321 1558,1303L1558,0ZM384,612L1298,612L1298,1174L841,1174C833,1174 816.167,1172.833 790.5,1170.5C764.833,1168.167 735.167,1162.333 701.5,1153C667.833,1143.667 632.333,1129.333 595,1110C557.667,1090.667 523.333,1064 492,1030C460.667,996 434.833,953.5 414.5,902.5C394.167,851.5 384,789.667 384,717L384,612Z" style="fill:rgb(30,42,68);fill-rule:nonzero;"></path>
            </g>
            <g transform="matrix(0.012933,0,0,-0.012933,-51.76,0)">
                <path d="M1586,1434L907,51C896.333,29.667 880.5,12.5 859.5,-0.5C838.5,-13.5 815.333,-20 790,-20C765.333,-20 742.5,-13.5 721.5,-0.5C700.5,12.5 684.333,29.667 673,51L-5,1434L286,1434L790,401L1296,1434L1586,1434Z" style="fill:rgb(30,42,68);fill-rule:nonzero;"></path>
            </g>
            <g transform="matrix(0.012933,0,0,-0.012933,-31.3,0)">
                <rect x="116" y="600" width="938" height="234" style="fill:rgb(30,42,68);fill-rule:nonzero;"></rect>
            </g>
            <g transform="matrix(0.012933,0,0,-0.012933,-16.17,0)">
                <path d="M1558,0L1298,0L1298,352L384,352L384,0L124,0L124,717C124,821.667 142,918 178,1006C214,1094 264,1169.667 328,1233C392,1296.333 467.667,1345.667 555,1381C642.333,1416.333 737.667,1434 841,1434L1427,1434C1445,1434 1462,1430.667 1478,1424C1494,1417.333 1508,1408 1520,1396C1532,1384 1541.333,1370 1548,1354C1554.667,1338 1558,1321 1558,1303L1558,0ZM384,612L1298,612L1298,1174L841,1174C833,1174 816.167,1172.833 790.5,1170.5C764.833,1168.167 735.167,1162.333 701.5,1153C667.833,1143.667 632.333,1129.333 595,1110C557.667,1090.667 523.333,1064 492,1030C460.667,996 434.833,953.5 414.5,902.5C394.167,851.5 384,789.667 384,717L384,612Z" style="fill:rgb(30,42,68);fill-rule:nonzero;"></path>
            </g>
            <g transform="matrix(0.012933,0,0,-0.012933,5.94,0)">
                <rect x="116" y="600" width="938" height="234" style="fill:rgb(30,42,68);fill-rule:nonzero;"></rect>
            </g>
            <g transform="matrix(0.012933,0,0,-0.012933,21.07,0)">
                <path d="M1820,0L1558,0L1558,854L1097,43C1085.667,22.333 1069.833,6.667 1049.5,-4C1029.167,-14.667 1007.333,-20 984,-20C961.333,-20 940.167,-14.667 920.5,-4C900.833,6.667 885.333,22.333 874,43L411,854L411,0L151,0L151,1323C151,1353 159.833,1379.667 177.5,1403C195.167,1426.333 218.333,1442 247,1450C261,1453.333 275,1454.5 289,1453.5C303,1452.5 316.5,1449.5 329.5,1444.5C342.5,1439.5 354.333,1432.5 365,1423.5C375.667,1414.5 384.667,1403.667 392,1391L984,362L1576,1391C1591.333,1416.333 1612.5,1434.333 1639.5,1445C1666.5,1455.667 1694.667,1457.333 1724,1450C1752,1442 1775,1426.333 1793,1403C1811,1379.667 1820,1353 1820,1323L1820,0Z" style="fill:rgb(30,42,68);fill-rule:nonzero;"></path>
            </g>
            <g transform="matrix(0.012933,0,0,-0.012933,46.56,0)">
                <path d="M1558,0L1298,0L1298,352L384,352L384,0L124,0L124,717C124,821.667 142,918 178,1006C214,1094 264,1169.667 328,1233C392,1296.333 467.667,1345.667 555,1381C642.333,1416.333 737.667,1434 841,1434L1427,1434C1445,1434 1462,1430.667 1478,1424C1494,1417.333 1508,1408 1520,1396C1532,1384 1541.333,1370 1548,1354C1554.667,1338 1558,1321 1558,1303L1558,0ZM384,612L1298,612L1298,1174L841,1174C833,1174 816.167,1172.833 790.5,1170.5C764.833,1168.167 735.167,1162.333 701.5,1153C667.833,1143.667 632.333,1129.333 595,1110C557.667,1090.667 523.333,1064 492,1030C460.667,996 434.833,953.5 414.5,902.5C394.167,851.5 384,789.667 384,717L384,612Z" style="fill:rgb(30,42,68);fill-rule:nonzero;"></path>
            </g>
            <g transform="matrix(0.012933,0,0,-0.012933,68.66,0)">
                <path d="M1447,1174L874,1174L874,0L614,0L614,1174L40,1174L40,1434L1447,1434L1447,1174Z" style="fill:rgb(30,42,68);fill-rule:nonzero;"></path>
            </g>
            <g transform="matrix(0.012933,0,0,-0.012933,87.89,0)">
                <rect x="153" y="0" width="260" height="1434" style="fill:rgb(30,42,68);fill-rule:nonzero;"></rect>
            </g>
            <g transform="matrix(0.012933,0,0,-0.012933,95.21,0)">
                <path d="M1435,0L497,0C473,0 447.167,2.833 419.5,8.5C391.833,14.167 364.5,23 337.5,35C310.5,47 284.667,62.5 260,81.5C235.333,100.5 213.5,123.5 194.5,150.5C175.5,177.5 160.333,208.833 149,244.5C137.667,280.167 132,320.333 132,365L132,1069C132,1093 134.833,1118.833 140.5,1146.5C146.167,1174.167 155,1201.5 167,1228.5C179,1255.5 194.667,1281.333 214,1306C233.333,1330.667 256.5,1352.5 283.5,1371.5C310.5,1390.5 341.667,1405.667 377,1417C412.333,1428.333 452.333,1434 497,1434L1435,1434L1435,1174L497,1174C463,1174 437,1165 419,1147C401,1129 392,1102.333 392,1067L392,365C392,331.667 401.167,305.833 419.5,287.5C437.833,269.167 463.667,260 497,260L1435,260L1435,0Z" style="fill:rgb(30,42,68);fill-rule:nonzero;"></path>
            </g>
        </g>
        <g transform="matrix(1,0,0,1,21.558072,116)">
            <g transform="matrix(0.007534,0,0,-0.007534,-75,0)">
                <path d="M1330,586L509,586L509,848L1330,848L1330,586ZM1447,0L509,0C473,0 433.667,6.333 391,19C348.333,31.667 308.833,52.5 272.5,81.5C236.167,110.5 205.833,148.167 181.5,194.5C157.167,240.833 145,297.667 145,365L145,1303C145,1321 148.333,1338 155,1354C161.667,1370 170.833,1384 182.5,1396C194.167,1408 208,1417.333 224,1424C240,1430.667 257.333,1434 276,1434L1447,1434L1447,1174L405,1174L405,365C405,331 414,305 432,287C450,269 476.333,260 511,260L1447,260L1447,0Z" style="fill:rgb(30,42,68);fill-rule:nonzero;"></path>
            </g>
            <g transform="matrix(0.007534,0,0,-0.007534,-62.57,0)">
                <path d="M1529,422C1529,370.667 1522.5,324.5 1509.5,283.5C1496.5,242.5 1479.333,206.333 1458,175C1436.667,143.667 1411.667,117 1383,95C1354.333,73 1324.667,55 1294,41C1263.333,27 1232.167,16.667 1200.5,10C1168.833,3.333 1139,0 1111,0L108,0L108,260L1111,260C1161,260 1199.833,274.667 1227.5,304C1255.167,333.333 1269,372.667 1269,422C1269,446 1265.333,468 1258,488C1250.667,508 1240.167,525.333 1226.5,540C1212.833,554.667 1196.167,566 1176.5,574C1156.833,582 1135,586 1111,586L513,586C471,586 425.667,593.5 377,608.5C328.333,623.5 283.167,647.667 241.5,681C199.833,714.333 165.167,758 137.5,812C109.833,866 96,932 96,1010C96,1088 109.833,1153.833 137.5,1207.5C165.167,1261.167 199.833,1304.833 241.5,1338.5C283.167,1372.167 328.333,1396.5 377,1411.5C425.667,1426.5 471,1434 513,1434L1398,1434L1398,1174L513,1174C463.667,1174 425.167,1159 397.5,1129C369.833,1099 356,1059.333 356,1010C356,960 369.833,920.5 397.5,891.5C425.167,862.5 463.667,848 513,848L1113,848C1141,847.333 1170.667,843.5 1202,836.5C1233.333,829.5 1264.5,818.667 1295.5,804C1326.5,789.333 1356,770.833 1384,748.5C1412,726.167 1436.833,699.333 1458.5,668C1480.167,636.667 1497.333,600.667 1510,560C1522.667,519.333 1529,473.333 1529,422Z" style="fill:rgb(30,42,68);fill-rule:nonzero;"></path>
            </g>
            <g transform="matrix(0.007534,0,0,-0.007534,-49.79,0)">
                <path d="M1447,1174L874,1174L874,0L614,0L614,1174L40,1174L40,1434L1447,1434L1447,1174Z" style="fill:rgb(30,42,68);fill-rule:nonzero;"></path>
            </g>
            <g transform="matrix(0.007534,0,0,-0.007534,-30.87,0)">
                <path d="M347,719C347,701 343.5,684.167 336.5,668.5C329.5,652.833 320.167,639.167 308.5,627.5C296.833,615.833 283.167,606.667 267.5,600C251.833,593.333 235.333,590 218,590C200,590 183.167,593.333 167.5,600C151.833,606.667 138.167,615.833 126.5,627.5C114.833,639.167 105.667,652.833 99,668.5C92.333,684.167 89,701 89,719C89,736.333 92.333,752.833 99,768.5C105.667,784.167 114.833,797.833 126.5,809.5C138.167,821.167 151.833,830.5 167.5,837.5C183.167,844.5 200,848 218,848C235.333,848 251.833,844.5 267.5,837.5C283.167,830.5 296.833,821.167 308.5,809.5C320.167,797.833 329.5,784.167 336.5,768.5C343.5,752.833 347,736.333 347,719Z" style="fill:rgb(30,42,68);fill-rule:nonzero;"></path>
            </g>
            <g transform="matrix(0.007534,0,0,-0.007534,-19.87,0)">
                <path d="M1423,0L106,0L106,481C106,505.667 108.833,531.833 114.5,559.5C120.167,587.167 129,614.667 141,642C153,669.333 168.5,695.333 187.5,720C206.5,744.667 229.5,766.5 256.5,785.5C283.5,804.5 314.667,819.667 350,831C385.333,842.333 425.333,848 470,848L1056,848C1091.333,848 1117.5,856.833 1134.5,874.5C1151.5,892.167 1160,918 1160,952L1160,1067C1160,1102.333 1151.333,1129 1134,1147C1116.667,1165 1091.333,1174 1058,1174L223,1174L223,1434L1058,1434C1102,1434 1141.667,1428.333 1177,1417C1212.333,1405.667 1243.5,1390.5 1270.5,1371.5C1297.5,1352.5 1320.667,1330.667 1340,1306C1359.333,1281.333 1375.167,1255.5 1387.5,1228.5C1399.833,1201.5 1408.833,1174.167 1414.5,1146.5C1420.167,1118.833 1423,1093 1423,1069L1423,952C1423,884.667 1410.833,827.833 1386.5,781.5C1362.167,735.167 1331.667,697.5 1295,668.5C1258.333,639.5 1218.833,618.5 1176.5,605.5C1134.167,592.5 1094.667,586 1058,586L470,586C448.667,586 431.667,583 419,577C406.333,571 396.5,563 389.5,553C382.5,543 377.333,531.667 374,519C370.667,506.333 368,493.667 366,481L366,260L1423,260L1423,0Z" style="fill:rgb(30,42,68);fill-rule:nonzero;"></path>
            </g>
            <g transform="matrix(0.007534,0,0,-0.007534,-7.49,0)">
                <path d="M1783,600C1783,541.333 1775.5,485.833 1760.5,433.5C1745.5,381.167 1724.333,332.667 1697,288C1669.667,243.333 1637.333,203.333 1600,168C1562.667,132.667 1521.833,102.5 1477.5,77.5C1433.167,52.5 1386,33.333 1336,20C1286,6.667 1235,0 1183,0L714,0C661.333,0 610,6.667 560,20C510,33.333 462.833,52.5 418.5,77.5C374.167,102.5 333.333,132.667 296,168C258.667,203.333 226.5,243.333 199.5,288C172.5,332.667 151.5,381.167 136.5,433.5C121.5,485.833 114,541.333 114,600L114,834C114,922 130.5,1002.667 163.5,1076C196.5,1149.333 240.667,1212.5 296,1265.5C351.333,1318.5 415.167,1359.833 487.5,1389.5C559.833,1419.167 635.333,1434 714,1434L1183,1434C1235,1434 1286,1427.333 1336,1414C1386,1400.667 1433.167,1381.5 1477.5,1356.5C1521.833,1331.5 1562.667,1301.333 1600,1266C1637.333,1230.667 1669.667,1190.667 1697,1146C1724.333,1101.333 1745.5,1052.833 1760.5,1000.5C1775.5,948.167 1783,892.667 1783,834L1783,600ZM1521,834C1521,885.333 1511.667,932 1493,974C1474.333,1016 1449.5,1052 1418.5,1082C1387.5,1112 1351.667,1135 1311,1151C1270.333,1167 1227.667,1174.667 1183,1174L714,1174C670.667,1174.667 628.5,1167.167 587.5,1151.5C546.5,1135.833 510.167,1113.167 478.5,1083.5C446.833,1053.833 421.5,1017.833 402.5,975.5C383.5,933.167 374,886 374,834L374,600C374,548 383.333,501 402,459C420.667,417 445.667,381.167 477,351.5C508.333,321.833 544.5,299 585.5,283C626.5,267 669.333,259.333 714,260L1183,260C1234.333,260 1280.833,268.5 1322.5,285.5C1364.167,302.5 1399.667,326 1429,356C1458.333,386 1481,421.833 1497,463.5C1513,505.167 1521,550.667 1521,600L1521,834ZM1408,1024C1418,1009.333 1424.667,993.5 1428,976.5C1431.333,959.5 1431.333,942.833 1428,926.5C1424.667,910.167 1418.167,894.833 1408.5,880.5C1398.833,866.167 1386.333,854 1371,844L669,375C657.667,366.333 646,360.333 634,357C622,353.667 609.667,352 597,352C575.667,352 555.333,357 536,367C516.667,377 501,391.333 489,410C479,424.667 472.333,440.5 469,457.5C465.667,474.5 465.5,491.167 468.5,507.5C471.5,523.833 477.667,539.167 487,553.5C496.333,567.833 508.667,580 524,590L1228,1059C1242.667,1069 1258.5,1075.667 1275.5,1079C1292.5,1082.333 1309.167,1082.333 1325.5,1079C1341.833,1075.667 1357.167,1069.333 1371.5,1060C1385.833,1050.667 1398,1038.667 1408,1024Z" style="fill:rgb(30,42,68);fill-rule:nonzero;"></path>
            </g>
            <g transform="matrix(0.007534,0,0,-0.007534,7.56,0)">
                <path d="M1423,0L106,0L106,481C106,505.667 108.833,531.833 114.5,559.5C120.167,587.167 129,614.667 141,642C153,669.333 168.5,695.333 187.5,720C206.5,744.667 229.5,766.5 256.5,785.5C283.5,804.5 314.667,819.667 350,831C385.333,842.333 425.333,848 470,848L1056,848C1091.333,848 1117.5,856.833 1134.5,874.5C1151.5,892.167 1160,918 1160,952L1160,1067C1160,1102.333 1151.333,1129 1134,1147C1116.667,1165 1091.333,1174 1058,1174L223,1174L223,1434L1058,1434C1102,1434 1141.667,1428.333 1177,1417C1212.333,1405.667 1243.5,1390.5 1270.5,1371.5C1297.5,1352.5 1320.667,1330.667 1340,1306C1359.333,1281.333 1375.167,1255.5 1387.5,1228.5C1399.833,1201.5 1408.833,1174.167 1414.5,1146.5C1420.167,1118.833 1423,1093 1423,1069L1423,952C1423,884.667 1410.833,827.833 1386.5,781.5C1362.167,735.167 1331.667,697.5 1295,668.5C1258.333,639.5 1218.833,618.5 1176.5,605.5C1134.167,592.5 1094.667,586 1058,586L470,586C448.667,586 431.667,583 419,577C406.333,571 396.5,563 389.5,553C382.5,543 377.333,531.667 374,519C370.667,506.333 368,493.667 366,481L366,260L1423,260L1423,0Z" style="fill:rgb(30,42,68);fill-rule:nonzero;"></path>
            </g>
            <g transform="matrix(0.007534,0,0,-0.007534,19.95,0)">
                <path d="M382,848L1074,848C1110.667,848 1150.167,841.5 1192.5,828.5C1234.833,815.5 1274.333,794.5 1311,765.5C1347.667,736.5 1378.167,698.667 1402.5,652C1426.833,605.333 1439,548.333 1439,481L1439,365C1439,340.333 1436.167,314.333 1430.5,287C1424.833,259.667 1415.833,232.5 1403.5,205.5C1391.167,178.5 1375.5,152.667 1356.5,128C1337.5,103.333 1314.5,81.5 1287.5,62.5C1260.5,43.5 1229.333,28.333 1194,17C1158.667,5.667 1118.667,0 1074,0L603,0C571,0 536.833,3.667 500.5,11C464.167,18.333 428.333,30.167 393,46.5C357.667,62.833 323.5,83.5 290.5,108.5C257.5,133.5 228.667,163.833 204,199.5C179.333,235.167 159.5,276.333 144.5,323C129.5,369.667 122,422.333 122,481L122,952C122,1010.667 129.5,1063.333 144.5,1110C159.5,1156.667 179.333,1197.833 204,1233.5C228.667,1269.167 257.5,1299.667 290.5,1325C323.5,1350.333 357.667,1371.167 393,1387.5C428.333,1403.833 464.167,1415.667 500.5,1423C536.833,1430.333 571,1434 603,1434L1255,1434L1255,1174L603,1174C569.667,1171.333 539.5,1164.333 512.5,1153C485.5,1141.667 462.333,1126.667 443,1108C423.667,1089.333 408.667,1066.833 398,1040.5C387.333,1014.167 382,984.667 382,952L382,848ZM382,586L382,481C382,447 387.833,416.5 399.5,389.5C411.167,362.5 427,339.333 447,320C467,300.667 490.5,285.833 517.5,275.5C544.5,265.167 573.667,260 605,260L1074,260C1107.333,260 1132.833,270 1150.5,290C1168.167,310 1177,335 1177,365L1177,481C1177,515 1168.333,541 1151,559C1133.667,577 1107.333,586 1072,586L382,586Z" style="fill:rgb(30,42,68);fill-rule:nonzero;"></path>
            </g>
        </g>
    </g>
</svg>